# xmcd
# 
# Track frame offsets:
#     150
#     16513
#     31183
#     51052
#     69851
#     90095
#     103896
#     120225
#     138692
#     156650
#     174570
#     193828
#     213538
#     234150
# 
# Disc length: 3405
# 
# Revision: 8
# Processed by: cddbd v1.5.2PL0 Copyright (c) Steve Scherf et al.
# Submitted via: fre:ac v1.0.27
# 
DISCID=b00d4b0e
DTITLE=Sugababes - Three (Japan)
DYEAR=2003
DGENRE=Pop
TTITLE0=Hole In The Head
TTITLE1=Whatever Makes You Happy
TTITLE2=Caught In A Moment
TTITLE3=Situation's Heavy
TTITLE4=Million Different Ways
TTITLE5=Twisted
TTITLE6=We Could Have It All
TTITLE7=Conversation's Over
TTITLE8=In The Middle
TTITLE9=Too Lost In You
TTITLE10=Nasty Ghetto
TTITLE11=Buster
TTITLE12=Sometimes
TTITLE13=Maya
EXTD=YEAR: 2003
EXTT0=
EXTT1=
EXTT2=
EXTT3=
EXTT4=
EXTT5=
EXTT6=
EXTT7=
EXTT8=
EXTT9=
EXTT10=
EXTT11=
EXTT12=
EXTT13=
PLAYORDER=
